
<svg xmlns="http://www.w3.org/2000/svg" viewBox="0 0 500 500">
	<style type="text/css">
		.st0{fill:url(#SVGID_1_);}
		.st1{fill:url(#SVGID_2_);}
		.st2{opacity:0.35;fill:url(#SVGID_3_);}
	</style>
	<filter x="-7.5%" y="-6.0%" width="115.0%" height="116.1%" filterUnits="objectBoundingBox" id="kepler-1">
		<feOffset dx="0" dy="8" in="SourceAlpha" result="shadowOffsetOuter1"></feOffset>
		<feGaussianBlur stdDeviation="9" in="shadowOffsetOuter1" result="shadowBlurOuter1"></feGaussianBlur>
		<feColorMatrix values="0 0 0 0 0   0 0 0 0 0   0 0 0 0 0  0 0 0 0.237403759 0" type="matrix" in="shadowBlurOuter1"></feColorMatrix>
	</filter>
	<linearGradient id="SVGID_1_" gradientUnits="userSpaceOnUse" x1="250" y1="37.9995" x2="250" y2="462.0005">
		<stop  offset="0" style="stop-color:#1ADCFF"/>
		<stop  offset="1" style="stop-color:#1E72F1"/>
	</linearGradient>
	<linearGradient id="SVGID_2_" gradientUnits="userSpaceOnUse" x1="155.6978" y1="250" x2="476.2805" y2="250">
		<stop  offset="0" style="stop-color:#F6F6F7"/>
		<stop  offset="0.2264" style="stop-color:#F1F3F7"/>
		<stop  offset="1" style="stop-color:#DCE8F4"/>
	</linearGradient>
	<linearGradient id="SVGID_3_" gradientUnits="userSpaceOnUse" x1="333.6734" y1="46.1643" x2="333.6734" y2="462.0005">
		<stop  offset="0" style="stop-color:#1ADCFF"/>
		<stop  offset="1" style="stop-color:#1E72F1"/>
	</linearGradient>
	<path filter="url(#kepler-1)" d="M443.1,462H56.9c-18.2,0-33.1-14.9-33.1-33.1V71.1C23.7,52.9,38.6,38,56.9,38h386.3c18.2,0,33.1,14.9,33.1,33.1 v357.7C476.3,447.1,461.4,462,443.1,462z"/>
	<path class="st0" d="M443.1,462H56.9c-18.2,0-33.1-14.9-33.1-33.1V71.1C23.7,52.9,38.6,38,56.9,38h386.3c18.2,0,33.1,14.9,33.1,33.1 v357.7C476.3,447.1,461.4,462,443.1,462z"/>
	<path filter="url(#kepler-1)" d="M443.1,38H174.6c-4.5,4.1-8.1,8.5-10.8,13.3c-7.6,13.2-9.8,30.8-6.7,53.8c2.4,17.5,7.9,38.6,16.5,62.7 c15.4,43.4,40.5,96,70.6,148.1c29.2,50.6,61,96.9,89.5,130.3c4.8,5.6,9.4,10.8,14,15.7h95.5c18.2,0,33.1-14.9,33.1-33.1V71.1 C476.3,52.9,461.4,38,443.1,38z"/>
	<path class="st1" d="M443.1,38H174.6c-4.5,4.1-8.1,8.5-10.8,13.3c-7.6,13.2-9.8,30.8-6.7,53.8c2.4,17.5,7.9,38.6,16.5,62.7 c15.4,43.4,40.5,96,70.6,148.1c29.2,50.6,61,96.9,89.5,130.3c4.8,5.6,9.4,10.8,14,15.7h95.5c18.2,0,33.1-14.9,33.1-33.1V71.1 C476.3,52.9,461.4,38,443.1,38z"/>
	<path class="st2" d="M426.8,51.2c-62.5,0-121.7,6.4-158.3,16.9c-0.9,0.3-1.8,0.4-2.7,0.4c-13.2,0-25.2-9.5-30-22.3 c-29.6,9-38.7,18-41.5,22.8c-3,5.2-6.5,18.8,1.9,52.4c4.3-0.7,8.8-0.7,13.2,0.2c8.7,1.8,16.1,6.8,20.5,13.9c0.7,1,1.2,2.1,1.5,3.3 c9,37.2,32.5,90.1,64.4,145.2c31.3,54.1,66.3,102.1,93.7,128.5c0,0,0,0,0.1,0.1c0,0,0,0,0,0c0,0,0,0,0,0c0.7,0.7,1.3,1.5,1.8,2.4 c4.1,7.4,4.9,16.5,2,25.1c-1.4,4.1-3.5,8-6.2,11.4c4.5,4.2,8.6,7.7,12.3,10.5h43.7c5.4,0,10.5-1.3,15.1-3.7c2.2-1.8,4.5-3.9,7-6.1 c-8.2-10.2-10.3-24.5-4.2-35.8c0.5-1.1,1.2-2.1,2.1-2.9c4.3-4.1,8.7-8.6,13.2-13.6V298.8c-19.1,25.9-37.7,44.3-50,44.3 c-37,0-137.7-175.9-119-208.3c12.1-20.9,102.8-28.4,169-21.9V71.1c0-7-2.2-13.6-6-19c-13.8-0.6-28.1-1-42.7-1 C427.3,51.2,427.1,51.2,426.8,51.2z"/>
</svg>
