
<svg xmlns="http://www.w3.org/2000/svg" viewBox="0 0 55 55">
	<style type="text/css">
		.st0{fill:url(#SVGID_1_);}
		.st1{fill:url(#SVGID_2_);}
		.st2{opacity:0.35;fill:url(#SVGID_3_);enable-background:new;}
	</style>
	<linearGradient id="SVGID_1_" gradientUnits="userSpaceOnUse" x1="27.4944" y1="52.3779" x2="27.4944" y2="4.6221" gradientTransform="matrix(1 0 0 -1 0 56)">
		<stop  offset="0" style="stop-color:#1ADCFF"/>
		<stop  offset="1" style="stop-color:#1E72F1"/>
	</linearGradient>
	<linearGradient id="SVGID_2_" gradientUnits="userSpaceOnUse" x1="16.8724" y1="28.5056" x2="52.9773" y2="28.5056" gradientTransform="matrix(1 0 0 -1 0 56)">
		<stop  offset="0" style="stop-color:#F6F6F7"/>
		<stop  offset="0.2264" style="stop-color:#F1F3F7"/>
		<stop  offset="1" style="stop-color:#DCE8F4"/>
	</linearGradient>
	<linearGradient id="SVGID_3_" gradientUnits="userSpaceOnUse" x1="36.9135" y1="51.4544" x2="36.9135" y2="4.6221" gradientTransform="matrix(1 0 0 -1 0 56)">
		<stop  offset="0" style="stop-color:#1ADCFF"/>
		<stop  offset="1" style="stop-color:#1E72F1"/>
	</linearGradient>
	<path class="st0" d="M49.2,51.4H5.7c-2,0-3.7-1.7-3.7-3.7V7.4c0-2,1.7-3.7,3.7-3.7h43.5c2,0,3.7,1.7,3.7,3.7v40.3
		C53,49.7,51.3,51.4,49.2,51.4z"/>
	<path class="st1" d="M49.2,3.6H19c-0.5,0.5-0.9,1-1.2,1.5c-0.9,1.5-1.1,3.5-0.8,6.1c0.3,2,0.9,4.3,1.9,7.1c1.7,4.9,4.6,10.8,8,16.7
		c3.3,5.7,6.9,10.9,10.1,14.7c0.5,0.6,1.1,1.2,1.6,1.8h10.8c2,0,3.7-1.7,3.7-3.7V7.4C53,5.3,51.3,3.6,49.2,3.6z"/>
	<path class="st2" d="M47.4,5.1c-7,0-13.7,0.7-17.8,1.9c-0.1,0-0.2,0-0.3,0c-1.5,0-2.8-1.1-3.4-2.5c-3.3,1-4.4,2-4.7,2.6
		c-0.3,0.6-0.7,2.1,0.2,5.9c0.5-0.1,1-0.1,1.5,0c1,0.2,1.8,0.8,2.3,1.6c0.1,0.1,0.1,0.2,0.2,0.4c1,4.2,3.7,10.1,7.3,16.4
		c3.5,6.1,7.5,11.5,10.6,14.5c0,0,0,0,0,0l0,0l0,0c0.1,0.1,0.1,0.2,0.2,0.3c0.5,0.8,0.6,1.9,0.2,2.8c-0.2,0.5-0.4,0.9-0.7,1.3
		c0.5,0.5,1,0.9,1.4,1.2h4.9c0.6,0,1.2-0.1,1.7-0.4c0.2-0.2,0.5-0.4,0.8-0.7c-0.9-1.1-1.2-2.8-0.5-4c0.1-0.1,0.1-0.2,0.2-0.3
		c0.5-0.5,1-1,1.5-1.5V33c-2.2,2.9-4.2,5-5.6,5C43.2,38,31.8,18.2,34,14.5c1.4-2.4,11.6-3.2,19-2.5V7.4c0-0.8-0.2-1.5-0.7-2.1
		c-1.6-0.1-3.2-0.1-4.8-0.1C47.5,5.1,47.4,5.1,47.4,5.1z"/>
</svg>
