
<svg xmlns="http://www.w3.org/2000/svg" viewBox="0 0 500 500">
	<filter width="112.1%" height="113.2%" id="finder-filter-1" filterUnits="objectBoundingBox" y="-3.9%" x="-6.1%">
		<feOffset result="shadowOffsetOuter1" in="SourceAlpha" dy="5" dx="0"></feOffset>
		<feGaussianBlur stdDeviation="5" result="shadowBlurOuter1" in="shadowOffsetOuter1"></feGaussianBlur>
			<feColorMatrix type="matrix" values="0 0 0 0 0   0 0 0 0 0   0 0 0 0 0  0 0 0 0.5 0" result="shadowMatrixOuter1" in="shadowBlurOuter1">
			</feColorMatrix>
		<feMerge>
			<feMergeNode in="shadowMatrixOuter1"></feMergeNode>
			<feMergeNode in="SourceGraphic"></feMergeNode>
		</feMerge>
	</filter>
	<linearGradient id="Combined-Shape_2_" gradientUnits="userSpaceOnUse" x1="-17.6606" y1="489.9863" x2="-17.6606" y2="488.8877" gradientTransform="matrix(237.1971 0 0 -386 4515.8955 189162.5)">
		<stop offset="0" style="stop-color:#F6F6F7"/>
		<stop offset="0.2264" style="stop-color:#F1F3F7"/>
		<stop offset="1" style="stop-color:#DCE8F4"/>
	</linearGradient>
	<linearGradient id="finder-path-3_3_" gradientUnits="userSpaceOnUse" x1="-17.8252" y1="489.9863" x2="-17.8252" y2="488.8877" gradientTransform="matrix(412 0 0 -386 7575 189162.5)">
		<stop offset="0" style="stop-color:#1ADCFF"/>
		<stop offset="1" style="stop-color:#1E72F1"/>
	</linearGradient>
	<filter x="-7.5%" y="-6.0%" width="115.0%" height="116.1%" filterUnits="objectBoundingBox" id="finder-filter-4">
		<feOffset dx="0" dy="8" in="SourceAlpha" result="shadowOffsetOuter1"></feOffset>
		<feGaussianBlur stdDeviation="9" in="shadowOffsetOuter1" result="shadowBlurOuter1"></feGaussianBlur>
		<feColorMatrix values="0 0 0 0 0   0 0 0 0 0   0 0 0 0 0  0 0 0 0.237403759 0" type="matrix" in="shadowBlurOuter1"></feColorMatrix>
	</filter>

	<g id="Page-1">
		<g id="Finder" transform="translate(-31.000000, -53.000000)">
			<g id="Icon" transform="translate(50.000000, 63.000000)" filter="url(#finder-filter-1)">
				<path id="finder-path-3_2_" fill="url(#finder-path-3_3_)" d="M24.441,28H437.56c10.891,0,19.721,8.83,19.721,19.721v384.559 c0,10.892-8.83,19.721-19.721,19.721H24.441C13.55,452,4.72,443.171,4.72,432.279V47.721C4.72,36.83,13.55,28,24.441,28z"/>
				<path fill="url(#Combined-Shape_2_)" filter="url(#finder-filter-4)" d="M243.524,28h194.004c10.89,0,19.718,8.832,19.718,19.723v384.555 c0,10.893-8.837,19.723-19.718,19.723H279.694c-18.71-69.138-16.938-149.934-17.082-166.648 c-0.137-17.196-11.511-15.767-11.511-15.767h-45.384c-10.044,0.139-8.981-10.53-8.981-10.53 C195.436,137.995,229.262,53.213,243.524,28z"/>
				<path fill="url(#Combined-Shape_2_)" d="M243.524,28h194.004c10.89,0,19.718,8.832,19.718,19.723v384.555 c0,10.893-8.837,19.723-19.718,19.723H279.694c-18.71-69.138-16.938-149.934-17.082-166.648 c-0.137-17.196-11.511-15.767-11.511-15.767h-45.384c-10.044,0.139-8.981-10.53-8.981-10.53 C195.436,137.995,229.262,53.213,243.524,28z"/>
				<path opacity="0.8" d="M330.366,126.605L330.366,126.605 c5.978,0,10.822,4.844,10.822,10.821v29.63c0,5.977-4.845,10.823-10.822,10.823l0,0c-5.977,0-10.822-4.846-10.822-10.823v-29.63 C319.544,131.449,324.39,126.605,330.366,126.605z"/>
				<path opacity="0.8" d="M133.601,126.605L133.601,126.605 c5.977,0,10.822,4.844,10.822,10.821v29.63c0,5.977-4.845,10.823-10.822,10.823l0,0c-5.977,0-10.822-4.846-10.822-10.823v-29.63 C122.779,131.449,127.624,126.605,133.601,126.605z"/>
				<path opacity="0.8" fill="none" stroke="#000000" stroke-width="12.8186" stroke-linecap="round" d=" M93.265,300.255c0,0,43.717,58.027,132.618,58.027c88.9,0,138.73-61.223,138.73-61.223"/>
			</g>
		</g>
	</g>
</svg>
