<svg xmlns="http://www.w3.org/2000/svg" width="0" height="0">
	<svg id="icon-arrow-left" viewBox="0 0 1024 1024">
		<path fill="#333" d="M46.236,491.33L833.312,53.934c18.372-10.076,33.189-1.185,33.189,19.558v872.422c0,20.744-14.817,29.634-33.189,19.558 L46.236,528.076C27.863,518,27.863,501.406,46.236,491.33L46.236,491.33z"/>
	</svg>

	<svg id="icon-arrow-right" viewBox="0 0 1024 1024">
		<path fill="#333" d="M973.724,528.076L186.648,965.472c-18.373,10.076-33.19,1.186-33.19-19.558V73.492c0-20.744,14.817-29.634,33.19-19.558 L973.724,491.33C992.097,501.406,992.097,518,973.724,528.076z"/>
	</svg>

	<svg id="icon-view-icons" viewBox="0 0 1024 1024">
		<path fill="#333" d="M595.048 94.828v331.899h331.899v-331.899h-331.899zM851.085 350.865h-180.174v-180.174h180.174v180.174z" />
		<path fill="#333" d="M92.458 929.319h331.899v-331.899h-331.899v331.899zM168.32 673.282h180.174v179.581h-180.174v-179.581z" />
		<path fill="#333" d="M92.458 426.728h331.899v-331.899h-331.899v331.899zM168.32 170.691h180.174v180.174h-180.174v-180.174z" />
		<path fill="#333" d="M595.048 929.319h331.899v-331.899h-331.899v331.899zM670.911 673.282h180.174v180.174h-180.174v-180.174z" />
	</svg>

	<svg id="icon-view-list" viewBox="0 0 1024 1024">
		<path fill="#333" d="M74.755,94.755h874.49v74.677H74.755V94.755z" />
		<path fill="#333" d="M74.755,348.025h874.49v74.677H74.755V348.025z" />
		<path fill="#333" d="M74.755,601.298h874.49v74.677H74.755V601.298z" />
		<path fill="#333" d="M74.755,854.568h874.49v74.677H74.755V854.568z" />
	</svg>

	<svg id="icon-view-columns" viewBox="0 0 1024 1024">
		<path fill="#333" d="M34.755,104.755v834.49h954.49v-834.49H34.755z M622.567,179.432v685.137H402.432V179.432H622.567z M109.432,179.432 h218.323v685.137H109.432V179.432z M914.567,864.568H697.243l0.002-685.137h217.322V864.568z"/>
	</svg>

	<svg id="icon-view-flow" viewBox="0 0 1024 1024">
		<path fill="#333" d="M284.947,252.437h455.122v519.122H284.947V252.437z" />
		<path fill="#333" d="M1006,185.982v652.035h-76.742V185.982H1006z" />
		<path fill="#333" d="M94.742,185.982v652.035H18V185.982H94.742z" />
		<path fill="#333" d="M874.952,237.363v549.271H798.21V237.363H874.952z" />
		<path fill="#333" d="M227.118,237.363v549.271h-76.742V237.363H227.118z" />
	</svg>

	<svg id="icon-gear" viewBox="0 0 1024 1024">
		<path fill="#333" d="M682.56,511.998c0-93.941-76.619-170.559-170.559-170.559c-93.94,0-170.559,76.618-170.559,170.559 c0,93.939,76.618,170.559,170.559,170.559C605.94,682.557,682.56,605.938,682.56,511.998L682.56,511.998z M1023.677,439.376v147.906 c0,9.994-7.994,21.986-18.654,23.984l-123.256,18.656c-7.327,21.319-15.323,41.306-25.982,60.629 c22.652,32.645,46.637,61.961,71.289,91.942c3.997,4.662,6.662,10.658,6.662,16.655c0,5.996-1.999,10.66-5.996,15.325 c-15.99,21.319-105.934,119.257-128.585,119.257c-5.996,0-11.992-2.666-17.323-5.996l-91.942-71.954 c-19.321,9.993-39.976,18.655-60.63,25.316c-4.662,40.642-8.66,83.946-19.32,123.922c-2.666,10.66-11.992,18.655-23.984,18.655 H438.048c-11.992,0-22.652-8.662-23.984-19.987l-18.654-122.59c-20.654-6.661-40.641-14.656-59.962-24.649l-93.941,71.288 c-4.664,3.997-10.66,5.996-16.657,5.996c-5.996,0-11.992-2.666-16.656-7.328c-35.311-31.979-81.947-73.288-109.93-111.929 c-3.331-4.665-4.664-9.994-4.664-15.326c0-5.996,1.999-10.658,5.329-15.323c22.652-30.647,47.304-59.962,69.956-91.275 c-11.327-21.321-20.654-43.307-27.316-65.958L19.644,608.604c-11.326-1.998-19.32-12.659-19.32-23.984V436.713 c0-9.993,7.994-21.985,17.988-23.984l123.922-18.654c6.662-21.32,15.323-41.308,25.982-61.294 c-22.652-31.981-46.637-61.962-71.289-91.942c-3.997-4.664-6.662-9.994-6.662-15.99s2.665-10.66,5.996-15.323 C112.25,187.539,202.194,90.267,224.846,90.267c5.996,0,11.992,2.665,17.323,6.662l91.942,71.289 c19.321-9.993,39.975-18.654,60.628-25.317c4.664-40.641,8.662-83.947,19.322-123.922c2.665-10.66,11.992-18.654,23.984-18.654 h147.906c11.992,0,22.652,8.66,23.984,19.986l18.655,122.59c20.652,6.663,40.64,14.658,59.962,24.651l94.605-71.289 c3.998-3.997,9.994-5.996,15.99-5.996s11.992,2.665,16.656,6.662c35.311,32.646,81.948,73.953,109.931,113.262 c3.33,3.997,4.665,9.327,4.665,14.657c0,5.996-1.999,10.66-5.331,15.324c-22.651,30.646-47.303,59.963-69.956,91.276 c11.328,21.319,20.654,43.306,27.318,65.291l121.922,18.655c11.326,1.999,19.321,12.658,19.321,23.984L1023.677,439.376z"/>
	</svg>

	<svg id="icon-chevron-down" viewBox="0 0 1024 1024">
		<path fill="#333" d="M978.511 367.46l-439.767 439.174c-14.817 14.817-38.524 14.817-53.341 0l-439.767-439.174c-14.817-14.817-14.817-39.117 0-53.934l98.384-97.792c14.817-14.817 38.524-14.817 53.341 0l314.712 314.712 314.712-314.712c14.817-14.817 38.524-14.817 53.341 0l98.384 97.792c14.817 14.817 14.817 39.117 0 53.934z"/>
	</svg>
	
	<svg id="sidebar-home" viewBox="0 0 1024 1024">
		<polygon fill="#dde" stroke="#433f50" stroke-width="34.8739" points="884.002,423.317 513.367,107.402 141.73,423.317 141.73,941.983 884.002,941.983 "/>
		<rect x="414.217" y="647.265" fill="#666" stroke="#433f50" stroke-width="30.7711" width="198.303" height="294.721"/>
		<line fill="none" stroke="#fafaff" stroke-width="30.7711" x1="570.123" y1="763.169" x2="570.123" y2="828.131"/>
		<rect x="431.994" y="351.862" fill="#fafaff" stroke="#433f50" stroke-width="30.7711" width="163.43" height="163.429"/>
		<polygon fill="#666" stroke="#433f50" stroke-width="30.7711" points="825.865,381.95 726.029,291.688 726.029,113.898 825.865,113.898 "/>
		<rect x="447.123" y="449.296" fill="#aab" width="132.83" height="50.438"/>
		<line fill="none" opacity="0.8" stroke="#433f50" stroke-width="41.0281" x1="103.414" y1="941.983" x2="921.664" y2="941.983"/>
		<polyline fill="none" opacity="0.9" stroke="#433f50" stroke-width="110" points="56.588,504.349 513.367,92.017 967.412,504.349 "/>
	</svg>
	
	<svg id="sidebar-desktop" viewBox="0 0 1024 1024">
		<path fill="#aab" d="M915.02,857.632H109.979c-11.286,0-20.47-9.188-20.47-20.471V307.069h845.979 v530.092C935.488,848.444,926.309,857.632,915.02,857.632z"/>
		<path fill="#433f50" opacity="0.5" d="M815.719,857.632H218.285V745.009c0-22.609,18.33-40.938,40.938-40.938h515.559 c22.609,0,40.939,18.328,40.939,40.938v112.623H815.719L815.719,857.632z"/>
		<rect x="276.49" y="747.188" fill="#fafaff" width="117.693" height="110.441"/>
		<rect x="458.152" y="747.188" fill="#fafaff" width="117.693" height="110.441"/>
		<rect x="639.814" y="747.188" fill="#fafaff" width="117.693" height="110.441"/>
		<path fill="#433f50" opacity="0.95" d="M915.02,112.005H109.979c-33.858,0-61.405,27.546-61.405,61.407v664.179c0,33.863,27.547,61.404,61.405,61.404h805.039 c33.864,0,61.407-27.541,61.407-61.404V173.412C976.426,139.551,948.881,112.005,915.02,112.005z M109.979,152.942h805.039 c11.29,0,20.471,9.186,20.471,20.47v93.146H89.51v-93.146C89.51,162.128,98.693,152.942,109.979,152.942z M915.02,858.061H109.979 c-11.286,0-20.47-9.188-20.47-20.47V307.493h845.979v530.098C935.488,848.873,926.309,858.061,915.02,858.061z"/>
		<circle fill="#433f50" cx="156.738" cy="209.826" r="25.674"/>
	</svg>

	<svg id="sidebar-applications" viewBox="0 0 1024 1024">
		<path fill="#aab" d="M813.933,519.699c7.714,13.141,10.538,25.109,8.634,36.608 c-0.305,1.841-0.818,3.869-1.495,5.964c14.659,1.857,27.902,10.43,35.476,23.323l26.16,44.521h109.1V450.575H774.947 C796.526,488.956,811.93,516.303,813.933,519.699z"/>
		<path fill="#aab" d="M707.605,630.116c0.07-0.214,0.122-0.442,0.206-0.655 c-10.812-1.414-26.316-7.352-38.339-27.809c-4.993-8.497-42.804-73.838-87.474-151.08h-170.36L307.996,630.113h399.609V630.116z"/>
		<polygon fill="#aab" points="211.15,450.575 44.373,450.575 44.373,630.116 107.502,630.116 "/>
		<path fill="#433f50" d="M443.706,158.938c-19.468-33.133,0.12-56.367,13.196-64.057c13.082-7.686,7.271-4.268,30.523-17.93 c23.258-13.667,45.289,3.871,56.567,23.062c11.277,19.199,235.575,419.246,244.118,433.777c8.531,14.537,6.856,23.351-4.765,30.174 c-11.628,6.834-45.069,26.48-56.688,33.309c-11.629,6.829-24.364,8.449-35.041-9.715 C678.812,565.756,443.706,158.938,443.706,158.938z"/>
		<path fill="#433f50" d="M861.469,652.011c5.664,9.635,2.443,22.026-7.194,27.686l-62.497,36.721c-9.633,5.659-22.034,2.44-27.698-7.201 l-30.739-52.316c-5.659-9.629-2.438-22.031,7.197-27.69l62.492-36.72c9.641-5.665,22.039-2.442,27.695,7.189L861.469,652.011z"/>
		<path fill="#433f50" d="M831.302,731.324c-14.176,8.324-27.007,17.178-25.624,44.38c1.343,26.347,21.109,68.993,46.115,78.494 c26.958,10.237,66.257,28.524,68.631,59.387c2.029,26.491,5.672,67.062,29.417,7.651c23.758-59.419,13.932-123.305-11.48-165.565 c-23.575-39.208-51.212-49.105-66.964-43.686C852.261,718.549,831.302,731.324,831.302,731.324z"/>
		<rect fill="#433f50" x="189.216" y="326.018" transform="matrix(-0.866 -0.5 0.5 -0.866 184.7924 1163.0376)" width="118.004" height="461.485"/>
		<path fill="#433f50" d="M62.819,759.973L40.481,798.66c-5.587,9.676-8.289,142.91-8.289,142.91s104.902-74.241,110.483-83.904l22.337-38.703 L62.819,759.973z"/>
		<path fill="#433f50" d="M433.681,353.594l41.086-71.178c5.587-9.676,2.272-22.049-7.403-27.631l-67.158-38.773 c-9.676-5.586-22.049-2.27-27.633,7.407l-41.094,71.174L433.681,353.594z"/>
	</svg>

	<svg id="sidebar-documents" viewBox="0 0 1024 1024">
		<path fill="#433f50" opacity="0.2" d="M652.32,927.629H91.032V195.614h180.021c64.431,0,95.089,10.429,95.089,69.712 v186.826h211.406c54.266,0,74.772,10.496,74.772,121.764V927.629z"/>
		<path fill="#fafaff" d="M523.858,331.342c37.249,34.82,75.766,70.829,89.055,84.203c0.636,0.639,1.235,1.292,1.858,1.938 c-11.056-2.422-23.639-3.664-38.004-3.664h-172.63V266.031c0-20.128-2.828-37.179-8.66-51.417 c13.348,7.606,23.844,17.166,34.645,28.048C444.881,257.516,485.032,295.048,523.858,331.342z"/>
		<path fill="#433f50" d="M641.104,387.228c-13.789-13.882-50.851-48.526-90.085-85.202c-38.569-36.056-78.451-73.334-92.703-87.686 c-31.389-31.604-64.512-57.766-152.184-57.766H52.263v810.092h638.828v-435.51C691.095,453.476,671.115,417.438,641.104,387.228z  M524.639,330.633c37.249,34.822,75.765,70.83,89.053,84.202c0.637,0.645,1.238,1.294,1.86,1.942 c-11.057-2.423-23.639-3.663-38.004-3.663H404.915V265.326c0-20.131-2.824-37.183-8.66-51.42 c13.348,7.604,23.846,17.167,34.645,28.046C445.659,256.809,485.81,294.338,524.639,330.633z M652.32,927.629H91.032V195.614 h180.021c64.431,0,95.089,10.429,95.089,69.712v186.826h211.406c54.266,0,74.772,10.496,74.772,121.764V927.629z"/>
		<path fill="#433f50" opacity="0.37" d="M551.019,302.025c39.232,36.673,76.296,71.322,90.085,85.198 c30.012,30.215,49.991,66.252,49.991,143.932v297.011h241.866V474.457c0-111.268-20.508-121.762-74.777-121.762h-211.4V165.868 c0-59.279-30.66-69.71-95.091-69.71H371.679v66.927l0,0c41.807,9.682,64.66,29.13,86.637,51.255 C472.567,228.695,512.448,265.97,551.019,302.025z"/>
		<path fill="#fafaff" d="M804.499,231.881c-38.823-36.293-78.979-73.824-93.733-88.679c-10.436-10.511-20.636-19.747-33.345-27.22 c5.437,13.935,8.137,30.449,8.137,49.886v147.787h172.632c13.621,0,25.592,1.151,36.23,3.336c-0.288-0.306-0.568-0.604-0.866-0.904 C880.266,302.71,841.75,266.699,804.499,231.881z"/>
		<path fill="#433f50" d="M971.735,431.696c0-77.677-19.981-113.715-49.992-143.935c-13.79-13.877-50.851-48.521-90.086-85.198 c-38.569-36.054-78.454-73.329-92.702-87.685c-31.392-31.601-64.51-57.766-152.185-57.766H332.902v100.378v0.003 c14.573,1.042,27.384,2.95,38.776,5.59l0,0V96.156h180.02c64.427,0,95.087,10.428,95.087,69.71v186.829h211.404 c54.266,0,74.775,10.494,74.775,121.762v353.709H691.097v39.043h280.641V431.696H971.735z M895.412,318.027 c-11.058-2.426-23.636-3.664-38.002-3.664H684.778V166.576c0-20.127-2.825-37.186-8.663-51.423c0.456,0.261,0.858,0.566,1.302,0.83 c-0.192-0.495-0.322-1.048-0.521-1.536c13.349,7.603,23.84,17.166,34.643,28.048c14.756,14.857,54.909,52.386,93.738,88.681 c37.249,34.819,75.766,70.826,89.053,84.206c0.638,0.642,1.239,1.292,1.859,1.938c-0.573-0.126-1.195-0.21-1.772-0.328 C894.748,317.333,895.076,317.677,895.412,318.027z"/>
		<path fill="#433f50" d="M685.558,313.655V165.868c0-19.437-2.7-35.951-8.137-49.886c-0.449-0.263-0.85-0.568-1.304-0.83 c5.838,14.237,8.665,31.298,8.665,51.423v147.788h172.63c14.366,0,26.946,1.237,38.004,3.662c-0.34-0.348-0.668-0.69-0.996-1.035 c-10.637-2.185-22.607-3.336-36.23-3.336L685.558,313.655L685.558,313.655z"/>
	</svg>

	<svg id="sidebar-folder" viewBox="0 0 1024 1024">
		<path fill="#aab" opacity="0.5" d="M957.693,816.264c0,15.043-12.195,27.251-27.249,27.251H97.558 c-15.051,0-27.25-12.206-27.25-27.251V171.832c0-15.044,12.197-27.25,27.25-27.25c0,0,158.293,0,193.725,0 c48.143,0,81.74,86.296,136.24,86.296c54.506,0,502.922,0,502.922,0c15.046,0,27.249,12.202,27.249,27.25L957.693,816.264 L957.693,816.264z"/>
		<path fill="#aab" d="M957.693,817.17c0,15.045-12.195,27.248-27.249,27.248H97.558 c-15.051,0-27.25-12.197-27.25-27.248V374.431c0-15.046,12.197-27.25,27.25-27.25h832.887c15.046,0,27.249,12.201,27.249,27.25 L957.693,817.17L957.693,817.17z"/>
		<path fill="#aab" d="M89.38,762.67c0,4.508,3.669,8.172,8.178,8.172h832.887 c4.509,0,8.177-3.669,8.177-8.172v54.495c0,4.511-3.67,8.174-8.177,8.174H97.558c-4.512,0-8.178-3.669-8.178-8.174V762.67z"/>
		<path fill="#433f50" opacity="0.75" d="M930.444,211.805H427.521c-20.781,0-39.694-17.016-59.722-35.026c-22.557-20.288-45.88-51.27-76.519-51.27H97.558 c-25.543,0-46.323,20.779-46.323,46.323v192.601v386.433v66.302c0,25.542,20.782,46.324,46.323,46.324h832.887 c25.542,0,46.32-20.782,46.32-46.324v-66.302V364.431V258.128C976.766,232.585,955.986,211.805,930.444,211.805z M97.558,163.657 h193.725c16.004,0,33.009,25.293,51.006,41.482c23.352,21.005,49.823,44.813,85.234,44.813h502.922c4.509,0,8.177,3.669,8.177,8.175 v60.746c-2.666-0.473-5.382-0.768-8.177-0.768H97.558c-2.796,0-5.513,0.295-8.178,0.768V171.832 C89.38,167.321,93.049,163.657,97.558,163.657z M938.621,817.17c0,4.511-3.67,8.174-8.177,8.174H97.558 c-4.512,0-8.178-3.668-8.178-8.174V364.431c0-4.508,3.669-8.174,8.178-8.174h832.887c4.509,0,8.177,3.668,8.177,8.174 L938.621,817.17L938.621,817.17z"/>
	</svg>

	<svg id="sidebar-dropbox" viewBox="0 0 1024 1024">
		<path opacity="0.73" fill="#433f50" d="M227.594,406.067L512,581.663l-196.896,164.08L33,562.088L227.594,406.067z M795.255,725.593 v62.179L513.151,956.457v0.575l-0.575-0.575L512,957.032v-0.575L230.473,787.771v-62.179l84.63,55.271L512,617.357v-1.151 l0.576,0.575l0.575-0.575v1.151l197.473,163.505L795.255,725.593z M315.104,66.968L512,231.048l-284.406,175.02L33,250.623 L315.104,66.968z M796.406,406.067L991,562.088L709.473,745.743L512,581.663L796.406,406.067z M709.473,66.968L991,250.623 L796.406,406.067L512,231.048L709.473,66.968z"/>
	</svg>

	<svg id="sidebar-icloud-drive" viewBox="0 0 1024 1024">
		<path fill="#aab" stroke="#433f50" stroke-width="30" d="M185.099,485.374 c-12.82-19.721-20.216-42.896-20.216-68.043c0-69.521,56.7-126.223,126.225-126.223c31.555,0,60.155,11.34,81.849,30.568 c37.965-92.203,128.195-156.793,233.713-156.793c139.535,0,252.447,112.91,252.447,252.447c0,6.902-0.494,14.3-0.986,21.202 c74.945,35.007,127.211,111.431,127.211,199.688c0,121.787-99.104,220.895-220.893,220.895H227.995 c-104.529,0-189.336-84.809-189.336-189.335C38.659,580.042,101.278,505.098,185.099,485.374z"/>
	</svg>

	<svg id="sidebar-google-drive" viewBox="0 0 1024 1024">
		<path opacity="0.73" fill="#433f50" d="M445.017,632.251l-173.425,300.63h545.453l173.425-300.63H445.017z"/>
		<path opacity="0.73" fill="#433f50" d="M965.856,572.126L688.15,91.119H340.924L618.63,572.126H965.856z"/>
		<path opacity="0.73" fill="#433f50" d="M306.164,151.245L33.53,623.609l173.613,300.628l272.633-472.363L306.164,151.245z"/>
	</svg>

</svg>