<svg xmlns="http://www.w3.org/2000/svg" width="0" height="0">
	
	<svg id="icon-arrow-left" viewBox="0 0 13 13">
		<style type="text/css">
			.st0{fill:#333;}
		</style>
		<polygon class="st0" points="9.2,1.6 8.5,0.8 3.5,5.8 3.5,5.8 2.8,6.5 3.5,7.2 8.5,12.2 9.2,11.4 4.2,6.5 "/>
	</svg>

	<svg id="icon-arrow-right" viewBox="0 0 13 13">
		<style type="text/css">
			.st0{fill:#333;}
		</style>
		<polygon class="st0" points="2.8,11.4 3.5,12.2 8.5,7.2 8.5,7.2 9.2,6.5 8.5,5.8 3.5,0.8 2.8,1.6 7.8,6.5 "/>
	</svg>

	<svg id="icon-view-icons" viewBox="0 0 13 13">
		<style type="text/css">
			.st0{fill:#333;}
		</style>
		<path class="st0" d="M5,1H2H1v5h1h4V5V1H5z M2,5V2h3v3H2z"/>
		<path class="st0" d="M11,1H8H7v5h1h4V5V1H11z M8,5V2h3v3H8z"/>
		<path class="st0" d="M5,7H2H1v5h1h4v-1V7H5z M2,11V8h3v3H2z"/>
		<path class="st0" d="M11,7H8H7v5h1h4v-1V7H11z M8,11V8h3v3H8z"/>
	</svg>

	<svg id="icon-view-list" viewBox="0 0 13 13">
		<style type="text/css">
			.st0{fill:#333;}
		</style>
		<rect x="1" y="1" class="st0" width="11" height="1"/>
		<rect x="1" y="4" class="st0" width="11" height="1"/>
		<rect x="1" y="7" class="st0" width="11" height="1"/>
		<rect x="1" y="10" class="st0" width="11" height="1"/>
	</svg>

	<svg id="icon-view-columns" viewBox="0 0 13 13">
		<style type="text/css">
			.st0{fill:#333;}
		</style>
		<path class="st0" d="M12,1H1H0v11h1h12v-1V1H12z M1,11V2h11v9H1z"/>
		<rect x="4" y="2" class="st0" width="1" height="9"/>
		<rect x="8" y="2" class="st0" width="1" height="9"/>
	</svg>

	<svg id="icon-view-flow" viewBox="0 0 13 13">
		<style type="text/css">
			.st0{fill:#333;}
		</style>
		<path class="st0" d="M12,2H1H0v6h1h12V7V2H12z M1,7V3h11v4H1z"/>
		<rect x="1" y="9" class="st0" width="2" height="2"/>
		<rect x="4" y="9" class="st0" width="2" height="2"/>
		<rect x="7" y="9" class="st0" width="2" height="2"/>
		<rect x="10" y="9" class="st0" width="2" height="2"/>
	</svg>

	<svg id="icon-gear" viewBox="0 0 13 13">
		<path fill="#333" d="M10.6,7c0-0.2,0-0.3,0-0.5c0-0.2,0-0.4,0-0.5l1.2-0.9c0.1-0.1,0.1-0.2,0.1-0.3l-1.1-1.9c-0.1-0.1-0.2-0.2-0.3-0.1L9,3.2
			C8.7,3,8.4,2.8,8.1,2.7L7.9,1.2C7.8,1.1,7.7,1,7.6,1H5.4C5.3,1,5.2,1.1,5.1,1.2L4.9,2.7C4.6,2.8,4.3,3,4,3.2L2.6,2.7
			c-0.1,0-0.3,0-0.3,0.1L1.2,4.7C1.1,4.8,1.2,5,1.3,5.1L2.4,6c0,0.2-0.1,0.4-0.1,0.5s0,0.4,0,0.5L1.3,7.9C1.2,8,1.1,8.2,1.2,8.3
			l1.1,1.9c0.1,0.1,0.2,0.2,0.3,0.1L4,9.8c0.3,0.2,0.6,0.4,0.9,0.5l0.2,1.5c0,0.1,0.1,0.2,0.3,0.2h2.2c0.1,0,0.3-0.1,0.3-0.2l0.2-1.5
			C8.4,10.2,8.7,10,9,9.8l1.4,0.5c0.1,0,0.3,0,0.3-0.1l1.1-1.9c0.1-0.1,0-0.3-0.1-0.3L10.6,7z M6.5,8.9c-1.3,0-2.4-1.1-2.4-2.4
			s1.1-2.4,2.4-2.4s2.4,1.1,2.4,2.4S7.8,8.9,6.5,8.9z"/>
	</svg>

	<svg id="icon-chevron-down" viewBox="0 0 13 13">
		<polygon fill="#333" points="10,4.1 6.5,7.6 3,4.1 1.6,5.5 6.5,10.4 7.2,9.7 7.9,9 11.4,5.5 "/>
	</svg>
	
</svg>