<svg xmlns="http://www.w3.org/2000/svg" width="0" height="0">
	
	<svg id="icon-arrow-left" viewBox="0 0 13 13">
		<style type="text/css">
			.st0{fill:#333;}
		</style>
		<polygon class="st0" points="9.2,1.6 8.5,0.8 3.5,5.8 3.5,5.8 2.8,6.5 3.5,7.2 8.5,12.2 9.2,11.4 4.2,6.5 "/>
	</svg>

	<svg id="icon-arrow-right" viewBox="0 0 13 13">
		<style type="text/css">
			.st0{fill:#333;}
		</style>
		<polygon class="st0" points="2.8,11.4 3.5,12.2 8.5,7.2 8.5,7.2 9.2,6.5 8.5,5.8 3.5,0.8 2.8,1.6 7.8,6.5 "/>
	</svg>

	<svg id="icon-view-icons" viewBox="0 0 13 13">
		<style type="text/css">
			.st0{fill:#333;}
		</style>
		<path class="st0" d="M5,1H2H1v5h1h4V5V1H5z M2,5V2h3v3H2z"/>
		<path class="st0" d="M11,1H8H7v5h1h4V5V1H11z M8,5V2h3v3H8z"/>
		<path class="st0" d="M5,7H2H1v5h1h4v-1V7H5z M2,11V8h3v3H2z"/>
		<path class="st0" d="M11,7H8H7v5h1h4v-1V7H11z M8,11V8h3v3H8z"/>
	</svg>

	<svg id="icon-view-list" viewBox="0 0 13 13">
		<style type="text/css">
			.st0{fill:#333;}
		</style>
		<rect x="1" y="1" class="st0" width="11" height="1"/>
		<rect x="1" y="4" class="st0" width="11" height="1"/>
		<rect x="1" y="7" class="st0" width="11" height="1"/>
		<rect x="1" y="10" class="st0" width="11" height="1"/>
	</svg>

	<svg id="icon-view-columns" viewBox="0 0 13 13">
		<style type="text/css">
			.st0{fill:#333;}
		</style>
		<path class="st0" d="M12,1H1H0v11h1h12v-1V1H12z M1,11V2h11v9H1z"/>
		<rect x="4" y="2" class="st0" width="1" height="9"/>
		<rect x="8" y="2" class="st0" width="1" height="9"/>
	</svg>

	<svg id="icon-view-flow" viewBox="0 0 13 13">
		<style type="text/css">
			.st0{fill:#333;}
		</style>
		<path class="st0" d="M12,2H1H0v6h1h12V7V2H12z M1,7V3h11v4H1z"/>
		<rect x="1" y="9" class="st0" width="2" height="2"/>
		<rect x="4" y="9" class="st0" width="2" height="2"/>
		<rect x="7" y="9" class="st0" width="2" height="2"/>
		<rect x="10" y="9" class="st0" width="2" height="2"/>
	</svg>

	<svg id="icon-gear" viewBox="0 0 13 13">
		<path fill="#333" d="M10.6,7c0-0.2,0-0.3,0-0.5c0-0.2,0-0.4,0-0.5l1.2-0.9c0.1-0.1,0.1-0.2,0.1-0.3l-1.1-1.9c-0.1-0.1-0.2-0.2-0.3-0.1L9,3.2 C8.7,3,8.4,2.8,8.1,2.7L7.9,1.2C7.8,1.1,7.7,1,7.6,1H5.4C5.3,1,5.2,1.1,5.1,1.2L4.9,2.7C4.6,2.8,4.3,3,4,3.2L2.6,2.7 c-0.1,0-0.3,0-0.3,0.1L1.2,4.7C1.1,4.8,1.2,5,1.3,5.1L2.4,6c0,0.2-0.1,0.4-0.1,0.5s0,0.4,0,0.5L1.3,7.9C1.2,8,1.1,8.2,1.2,8.3 l1.1,1.9c0.1,0.1,0.2,0.2,0.3,0.1L4,9.8c0.3,0.2,0.6,0.4,0.9,0.5l0.2,1.5c0,0.1,0.1,0.2,0.3,0.2h2.2c0.1,0,0.3-0.1,0.3-0.2l0.2-1.5 C8.4,10.2,8.7,10,9,9.8l1.4,0.5c0.1,0,0.3,0,0.3-0.1l1.1-1.9c0.1-0.1,0-0.3-0.1-0.3L10.6,7z M6.5,8.9c-1.3,0-2.4-1.1-2.4-2.4 s1.1-2.4,2.4-2.4s2.4,1.1,2.4,2.4S7.8,8.9,6.5,8.9z"/>
	</svg>

	<svg id="icon-chevron-down" viewBox="0 0 13 13">
		<polygon fill="#333" points="10,4.1 6.5,7.6 3,4.1 1.6,5.5 6.5,10.4 7.2,9.7 7.9,9 11.4,5.5 "/>
	</svg>
	
	<svg id="icon-chevron-right" viewBox="0 0 13 13">
		<polygon fill="#666" points="3.3,11.4 4,12.2 9,7.2 9,7.2 9.7,6.5 9,5.8 4,0.8 3.3,1.6 8.3,6.5 "/>
	</svg>

	<svg id="icon-user" viewBox="0 0 17 17">
		<path fill="#666" d="M16,15v1H1v-1c0.3-0.3,0.8-0.6,1.3-0.7c1.5-0.7,2.1-0.8,2.9-0.9s1-0.4,1.1-1.2c0.1-0.7,0.2-0.8,0.2-1.2
			C6,10.7,5.9,10.1,5.8,9.7c0-0.3-0.2-0.7-0.1-1C5.3,8.8,5.3,8.3,5.2,8C5.1,7.9,4.9,7.1,4.8,6.7C4.8,6.3,4.9,6.1,5.2,6.3
			C4.9,5.6,5,4.8,4.9,4.3c-0.1-0.5-0.3-1.8,0.6-2c0.3-0.1,0.5-0.6,1.1-0.8C7.2,1.4,7.8,1,8.5,1c0.7,0,1.3,0.4,1.8,0.6
			c0.6,0.2,0.8,0.7,1.1,0.8c0.9,0.2,0.7,1.5,0.6,2s0,1.2-0.2,2c0.3-0.2,0.4,0,0.3,0.4c-0.1,0.4-0.3,1.1-0.3,1.2
			c-0.1,0.3-0.1,0.9-0.5,0.8c0,0.3-0.1,0.7-0.1,1c0,0.3-0.2,0.9-0.7,1.3c0,0.3,0.1,0.4,0.2,1.2c0.1,0.7,0.3,1,1.1,1.2
			c0.8,0.1,1.7,0.3,2.9,0.9C15.2,14.4,15.7,14.7,16,15z"/>
	</svg>

	<svg id="icon-group" viewBox="0 0 17 17">
		<path fill="#666" d="M15.8,13.2c-0.3-0.8-1.9-1.2-3-1.6s-0.9-0.8-0.9-1.1c0-0.1,0-0.1,0-0.2c0.3-0.3,0.6-0.7,0.8-1.1l0,0
			c0.1-0.1,0.1-0.2,0.1-0.3c0.3-0.1,0.4-0.3,0.4-0.6c0.1-0.1,0.2-0.3,0.1-0.6c0-0.3-0.2-0.5-0.3-0.6l0,0c0.1-0.3,0.2-0.7,0.2-1.2
			c0-0.4-0.1-0.8-0.4-1.1c0-0.1-1.2-1.5-1.2-1.6c-0.1,0.1,0,0.4-0.2,0.3c0,0,0.1-0.2,0.1-0.4c-0.1,0.2-0.2,0.3-0.4,0.4
			c0.1-0.1,0.2-0.2,0.2-0.3c-0.1,0.1-0.3,0.2-0.4,0.1c0-0.1,0.1-0.2,0.1-0.3c-0.1,0.1-0.3,0.1-0.4,0.1c-0.1-0.1,0-0.3,0-0.4
			c-0.1,0.2-0.3,0.3-0.5,0.4c-0.1-0.1-0.1-0.3,0-0.4C10,2.9,9.9,3,9.8,3.2C9.7,3,9.7,3,9.7,2.8C9.2,3.5,8.5,4,7.9,4.5
			C7.2,5.4,7.4,6.2,7.6,7.1C7.5,7.2,7.3,7.3,7.3,7.6c0,0.3,0.1,0.5,0.1,0.6c0.1,0.3,0.2,0.5,0.4,0.6c0,0.1,0.1,0.3,0.1,0.3l0,0l0,0
			c0.2,0.4,0.4,0.9,0.8,1.1c0,0.1,0,0.1,0,0.1c-0.1,0.4,0.1,0.6-1,1.1c-1.1,0.4-2.6,0.9-3,1.6c-0.3,0.8-0.2,1.1-0.2,1.1h11.3
			C16,14.4,16.1,14,15.8,13.2z"/>
		<path fill="#888" d="M7.8,10.4C7.6,10,6.7,9.7,6,9.4C5.4,9.2,5.5,9,5.5,8.8c0-0.1,0-0.1,0-0.1C5.7,8.5,5.9,8.2,5.9,8l0,0C5.9,7.9,6,7.9,6,7.8
			c0.1,0,0.3-0.2,0.3-0.3c0-0.1,0.1-0.2,0.1-0.4c0-0.2-0.1-0.3-0.1-0.3c0.1-0.6,0-0.9-0.1-1.3c-0.1-0.3,0.3,0,0.3,0
			c0-0.3-0.4-0.6-0.5-0.8c0-0.1,0.3,0,0.3,0C5.3,3.8,3.8,4.5,3.8,4.5S3.2,4.3,3,4.5c0,0,0.1,0,0.2,0.1C3.3,4.7,3,4.9,3,4.9
			C2.7,5.1,2.7,5.2,2.7,5.2C2.8,5.1,3,5.2,3,5.2S2.6,5.5,2.7,5.6c0,0,0.2-0.2,0.2,0.1c0,0.3,0,0.5,0,1.1C2.8,6.8,2.7,6.9,2.7,7
			c0,0.2,0.1,0.3,0.1,0.4c0,0.1,0.1,0.3,0.3,0.3C3,7.8,3,7.9,3,7.9l0,0l0,0c0.1,0.3,0.3,0.5,0.4,0.7c0,0.1,0,0.1,0,0.1
			c0,0.3,0.1,0.4-0.6,0.6s-1.6,0.6-1.8,1C1,10.8,1,11.1,1,11.1h6.9C7.9,11.1,8,10.9,7.8,10.4z"/>
	</svg>

	<svg id="icon-sort" viewBox="0 0 17 17">
		<polygon fill="#666" points="8.5,3.2 7.6,4.2 5.3,6.4 6.2,7.4 8.5,5.2 10.8,7.4 11.7,6.4 "/>
		<polygon fill="#666" points="8.5,13.8 9.4,12.8 11.7,10.6 10.8,9.6 8.5,11.8 6.2,9.6 5.3,10.6 "/>
	</svg>

	<svg id="icon-plus" viewBox="0 0 13 13">
		<polygon fill="#666" points="11,6 7,6 7,2 6,2 6,6 2,6 2,7 6,7 6,11 7,11 7,7 11,7 "/>
	</svg>

	<svg id="icon-minus" viewBox="0 0 13 13">
		<rect fill="#666" x="2" y="6" width="9" height="1"/>
	</svg>

	<svg id="icon-action-apply" viewBox="0 0 13 13">
		<circle fill="#666" cx="6.5" cy="6.5" r="1"/>
		<circle fill="#666" cx="3" cy="6.5" r="1"/>
		<circle fill="#666" cx="10" cy="6.5" r="1"/>
	</svg>

	@import "icon-padlock.svg"
	@import "icon-padlock-open.svg"
	
</svg>